<?xml version="1.0" encoding="utf-8"?>
<!-- Generator: Adobe Illustrator 25.4.1, SVG Export Plug-In . SVG Version: 6.00 Build 0)  -->
<svg version="1.1" id="Calque_1" xmlns="http://www.w3.org/2000/svg" xmlns:xlink="http://www.w3.org/1999/xlink" x="0px" y="0px"
	 viewBox="0 0 471 148.7" style="enable-background:new 0 0 471 148.7;" xml:space="preserve">
<style type="text/css">
	.st0{fill:#FDF5BD;}
</style>
<g id="Calque_2_00000103235589098978183950000012290999944585417363_">
	<g id="Calque_1-2">
		<path class="st0" d="M322.2,148.7c-1-1.2-2.6-0.8-3.8-1.1c-3.2-0.9-6.3-2.1-8.6-4.6c-2-2.2-3-4.8-2.2-7.7c0.9-3.4,0.9-7-0.1-10.4
			c-1.9-7.7-4.3-15.2-8.3-22.1c-0.7-1.7-2.6-2.5-4.4-1.9c-29.3,6.7-58.9,12.5-88.5,17.6c-27.6,4.8-55.3,9.2-83.2,11.2
			c-9.5,0.7-19.2,1.4-28.7-0.6c-6.1-1.3-6.8-2.5-6-8.7c1.5-12,1.7-24.2,2.2-36.3c0.1-1.9-1-1.6-2.1-1.3c-11.2,3.4-22.7,4.4-34.3,5.6
			c-17.7,1.7-34.6-1.2-51.1-7.6c-1.6-0.4-2.8-1.7-3.1-3.4c-0.2-1.9,1.7-2,2.9-2.4c6.8-2.7,13.7-5.2,19.8-9.1
			c2.8-1.8,5.5-3.6,7.5-6.1C16.1,50.5,8.8,36.8,4.9,21c-0.7-2.6-0.7-5.4,0.1-8c0.9-2.9,2.3-3.7,4.9-2.2c14.4,8.2,30,7.9,45.7,6.4
			c19.1-1.9,37.4-7.6,55.9-12c11-2.6,22-5.3,33.4-5.2c4.2,0,8.4,0.4,12.2,2.5c5.3,2.8,6.9,6.2,5.5,12c-1,4,0.4,7.7,1.2,11.5
			c1.6,6.9,4.3,13.6,7.9,19.6c1,1.7,2,2.1,3.9,1.6c33.5-7.6,67.3-14,101.3-19.7c21.3-3.5,42.7-6.8,64.2-8.8c10.9-1,21.7-2,32.6-0.7
			c1.2,0.1,2.4,0.3,3.5,0.6c4.5,1.2,5.8,3.3,5.2,7.9c-1.6,12-2,24.1-2.3,36.2c-0.1,2.3,0.3,2.8,2.8,2.1c20.3-5.2,40.9-7.5,61.8-4.4
			c7.9,1.2,15.4,4.3,23,6.7c1.7,0.5,2.3,1.9,3.2,3.2v1.2l-9.1,3.6c-7.3,2.9-14.2,6.3-20.2,11.5c-1.3,1.2-1.5,1.7,0.2,2.7
			c2.1,1.2,4,2.6,5.8,4.2c7.8,6.7,11.9,15.7,15.5,24.9c1.9,4.4,3,9.2,3,14c0,1.9-0.3,4-2.2,5s-3.6-0.3-5.1-1.5
			c-1.1-1-2.4-1.7-3.9-2.2c-5.5-1.4-11.1-2.4-16.8-2.9c-17-1.5-33.7,0.8-50.3,4.5c-14.9,3.4-29.7,7.2-44.6,10.6
			c-4.2,1-8.5,1.6-12.8,2.3L322.2,148.7z M94.1,126.5c6.1,0.6,11.7-0.2,17.2-0.9c24.8-3.1,49.3-8,73.8-12.8
			c45.6-8.9,91-19.1,136.8-26.9c18.1-3.1,36.5-5.4,54.1,2.8c0-0.2,0.2-0.4,0.1-0.6c-4.8-15.3-5.1-31.1-5-47c0-5.6,1.2-11.2,3.5-16.3
			c1.6-3.4,1.6-3.3-2.2-3.3c-9.8,0.1-19.3,1.6-28.9,3.3c-35.3,5.9-70.3,13.4-105.3,20.5c-31.8,6.5-63.6,13.4-95.8,18
			c-16.2,2.3-32.4,3.6-48.1-3.9c0.1,0.6,0.1,1.1,0.3,1.7c4.6,13.1,5.1,26.7,4.9,40.3C99.4,109.9,99.4,118.6,94.1,126.5z M459,131.3
			c0.1-1.1,0-2.3-0.1-3.4c-2.9-13.5-8.2-25.5-19.9-33.8c-1.5-1-2.8-2.2-4-3.5c-1.5-1.9-1.4-3.4,0.6-4.8c7.5-5.5,14.9-11.1,23.7-14.5
			c0.8-0.3,2-0.3,2.4-1.5c-7.2-1.8-14.5-3-21.9-3.6c-17.5-1.5-34.8,0.2-52,2.6c-8.1,1.1-8.1,1.2-7,9.7c1,6.4,1.4,12.9,1.2,19.4
			c0,2.3-1.1,4.5-3,5.9c-2.7,1.9-5.7,3.3-8.9,4.1c-7.3,2-14.7,3.7-22,5.7c-10.9,3-21.3,7-29.8,14.7c-2.2,1.9-3.9,4.3-5.1,7
			c-1.5,3.8-0.1,6.3,4,6.8c3,0.3,6,0.2,9-0.3c12.8-2.1,25-6.1,37.4-9.5c16.2-4.4,32.1-9.8,49-11.1c5.7-0.4,11.5-2.1,17.3-0.8
			C439.9,122.5,450.2,124.1,459,131.3L459,131.3z M8.2,78.2c11.5,2.2,22.3,4.3,33.3,4.4c14.6,0.1,29.2-1.6,43.6-3.5
			c5.5-0.7,5.4-0.8,5-6.5c-0.5-7-2-13.8-1.7-20.9c0.1-3.3,1.1-5.8,3.8-7.7c1.7-1.2,3.6-2.1,5.6-2.8c5.3-1.7,10.7-3.2,16.2-4.4
			c11.3-2.8,22.5-5.7,32.3-12.2c4.4-2.9,8.5-6.1,10.8-11c2-4.3,0.4-7.1-4.3-7.4c-1.5-0.1-3-0.1-4.5,0c-9.1,0.8-17.9,3.3-26.7,5.6
			c-18.6,5-36.9,11.2-56,14.3C58,27.4,50,29.1,42,27.9c-10.4-1.5-20.7-3.7-29.4-10.2c-0.2-0.1-0.5-0.1-0.9-0.2
			c-0.1,0.5-0.1,1-0.1,1.5c2.5,13.7,7.7,25.9,19.3,34.4c1.8,1.3,3.7,2.4,5,4.3S37,61,35,62.4c-7.3,5.3-14.5,10.6-23,14
			C11,76.8,9.9,77.4,8.2,78.2z M311.2,128.3c8.9-9.3,19.8-13.3,30.8-16.9c6.5-2.1,13.1-3.5,19.6-5.3c4.4-1.2,8.9-2.3,12.7-5.1
			c4.3-3.2,4-6.1-0.9-8.4s-10.1-2.6-15.2-2.5c-18.5,0.3-36.4,4.7-54.3,8.8c-1.8,0.4-1.6,1-0.8,2.1
			C308.8,108.9,311.5,117.7,311.2,128.3L311.2,128.3z M159.1,20.2c-7.8,8.1-17.3,12.1-27.1,15.5c-7,2.4-14.2,4.1-21.3,6
			c-4.9,1.3-10,2.2-14.2,5.3c-1.6,1.1-3.2,2.4-3.1,4.5c0.1,2.3,2,3.3,3.9,4.2c4.2,1.8,8.7,2.2,13.2,2.2c15.8,0,31.2-2.9,46.5-6.3
			c3.9-0.7,7.8-1.7,11.5-2.9c-2.9-4.1-5.3-8.5-7.1-13.2C159.7,30.7,159.6,25.7,159.1,20.2z"/>
		<path class="st0" d="M212.5,77.7l1.7-3.8c1.3-2.9,3.8-5,6.9-5.7c4.1-1,6.8,1.1,7.1,5.4c0.2,3.1-1,5.6-3.4,8.1
			c2.8-1.1,3.1-1.3,4-3.9c0.4-1.2,0.7-2.9,2.4-2.4s0.8,2.3,0.5,3.4c-2,7.7-9.7,10.8-16.6,6.8c-1.2-0.7-1.4,0.2-1.8,0.7
			c-1.7,2-4.1,3.3-6.7,3.7c-5.1,0.9-7.1-0.4-9.8-5.9c-1.1,1.1-0.3,2.3-0.2,3.3c0.2,5.5-2.3,9.9-6.5,11.4s-6.7,0.2-8.3-4.7
			c-1.4,3.3-3.1,6.2-6.8,7.2c-4.5,1.2-7.2-0.6-7.8-5.2c-0.2-1.9,0.3-3.8,0.5-5.7c0.5-5.7,2.2-11.4,0.4-17.2
			c-0.2-0.8,0.4-1.2,1.1-1.4c2.4-0.9,5.1,0.3,6,2.8c0.2,0.4,0.3,0.9,0.3,1.3c0.1,0.7-0.1,1.4,0.1,2.1c0.2,1-0.7,2.2,0.3,2.8
			c1.5,0.8,2.8,2.2,4.2,2.7c1.2,0.4,2.3-1.4,2.7-2.7c0.8-3,1.4-6.1,0.2-9.1c-0.7-1.8,0.1-2.1,1.4-2.4c3.2-0.7,6.2,1.6,5.7,5.1
			c-0.6,3.8,2,4.8,4.1,6.6c0.8,0.7,1.2,0.1,1.8-0.4c0.8-0.8,1.3-1.7,1.7-2.8c0.9-2.6,2.8-4.7,5.2-6
			C208.4,68.8,212.2,70.9,212.5,77.7z M205.6,84c1.8,1.4,2.6,1.5,4.4,0.3c2.2-1.4,2.8-3,2.3-5.5C210.6,83.3,209.8,83.9,205.6,84z
			 M221.4,74.5c-0.1,0.7-0.6,1.6,0.4,1.5c1.4-0.2,1.7-1.5,2-2.6c0.3-0.8-0.1-2-0.8-2C221.3,71.6,221.9,73.5,221.4,74.5L221.4,74.5z
			 M205.6,78.5c1.6-0.1,2-1.3,2.3-2.6c0.2-0.8,0.1-1.8-0.7-2c-1-0.3-1.1,0.8-1.2,1.5C205.8,76.4,205,77.3,205.6,78.5L205.6,78.5z"/>
		<path class="st0" d="M279.7,53.7c-1.3,4.2-1.4,8.5-2.2,12.7c-0.5,3.4-1.5,6.6-3,9.7c-0.9,1.9-2.3,3.5-4.1,4.7
			c-3.6,2.2-5.4,1.7-7.4-2.1c-0.2,0.2-0.5,0.3-0.7,0.6c-1.4,2.3-3.2,4.4-6.1,4s-4.2-3.1-5.1-5.7c-1.1-3.7-0.7-7.5-0.2-11.3
			c0.1-0.9,0.9-2.4-0.6-2.8c-1.2-0.5-2.5,0.1-3,1.3v0.1c-0.5,1.3,0,2.2,1.5,2.5s1.1,1.3,0.6,2.3c-1.5,3.4-7.2,3.6-10,0.4
			c-3.1-3.4-2-9.3,2.1-11.6c2.6-1.5,5.5-1.6,8.4-1.3c0.9,0.1,1.8,0.4,2.7-0.6c2-2.3,4.3-2.6,6.2-1c2,1.6,2.4,4.5,0.8,6.5
			c-0.1,0.2-0.3,0.4-0.5,0.5c-3.7,3.3-2.2,7.2-2,11c0.1,1.2,0.6,2.8,2.2,2.7s2.3-1.7,2.4-3.1c0.3-2.6,0.4-5.2,0.5-7.8
			c0.1-1.4,0.4-2.8,1.1-4c0.3-0.8,1.1-1.2,1.9-1.2c0.9,0.2,1.2,0.9,1.4,1.7c0.5,2.7-0.4,5.1-1,7.7c-0.4,1.8-1.1,4.2,1,4.7
			s2.5-2,3.1-3.6c1.6-4.9,1.5-10.1,2-15.1c0.1-3,1.2-6,3.1-8.4c2-2.8,5.7-3.7,8.9-2.4c2.5,1,4.1,2.9,4.1,5.7c0,2.4-2.8,4.9-5.3,5.5
			C280.6,56.3,281.2,54.1,279.7,53.7z"/>
		<path class="st0" d="M312.6,69.4c-1.7,3-4,4.9-7.6,4.2c-3.5-0.7-3.8-3.6-4.3-6.8c-1.1,2.3-1.4,4.5-2.7,6.2
			c-2.1,2.9-4.5,3.6-7.7,1.8c-1-0.6-1.3-0.3-1.9,0.4c-3.2,3.7-7.4,2-9.1-2.3s0-10.3,3.8-12.9c2.6-1.7,5.9-1.3,8.8-2.2
			c2.4-0.8,4.1,1.9,3.8,5.1c-0.2,1.7-0.9,3.3-0.6,5c0,0.3,0.3,0.5,0.6,1c1.6-2.9,1.9-5.9,2.3-8.9c0.2-1.4-1.1-1.8-1.5-2.8
			c-0.7-1.5-1.4-3.2,0.5-4.2s2.9,0.2,3.4,1.7s1.4,1.6,2.7,1.8c5,0.6,6,2,5.4,6.9c0,0.4-0.2,0.8-0.2,1.2c0,1,0.2,2.3,1.3,2.4
			c1,0.1,1.2-1.2,1.3-2.1c0.2-1.6,0.1-3.2,0.8-4.7c0.5-1.1,1.1-2.3,2.3-2.7c1.8-0.4,3.1-2,3.1-3.9c0-1.5,1.2-2.7,2.6-2.8
			c2.1-0.2,1.2,1.5,1.5,2.5c0.9,2.5,2.8,4.3,4.1,6.6c3,5.3,0.4,11-5.4,11.9C317.2,72.2,314.4,71.3,312.6,69.4z M320.3,59.5
			c-0.4,0.8-0.3,1.8-1.5,2.2c-0.9,0.3-1.3,1.2-1,2.1c0,0.1,0.1,0.2,0.2,0.4c0.4,0.9,1.4,1.3,2.2,0.9l0,0c1-0.2,1.7-1.2,1.5-2.3
			C321.6,61.6,321.1,60.4,320.3,59.5L320.3,59.5z M288.7,64.9c0.1-1.1,0-2-1-2c-1.6,0-1.6,1.6-1.7,2.6s0.1,2.6,1.5,2.3
			C289.1,67.6,288.2,65.7,288.7,64.9z"/>
		<path class="st0" d="M134,102.8c-6.2,0.1-11-4.3-11.3-12.2c-0.3-5.5,1.6-10.8,5.3-14.8c1.4-1.6,3.2-2.8,5.2-3.5
			c3.6-1.3,7-0.7,8.9,1.5c2.2,3,2.5,6.9,0.7,10.2c-1.8,2.9-5.7,3.8-8.6,2c-0.7-0.4-1.3-1-1.7-1.6c-0.6-0.9-0.8-1.5,0.4-2.1
			c1.3-0.6,2.3-1.6,3-2.9c0.3-0.6,0.7-1.2,0-1.9c-0.6-0.6-1.5-0.7-2.2-0.2c-2.2,1-4.4,5.8-4.1,8.9s2.2,4.4,4.8,5
			c3.1,0.7,7.1-0.6,8.3-3.4c1.3-2.9,2.3-1.8,3.7-0.3c3,3,3,7.8,0,10.9C143.4,101.4,139.8,102.8,134,102.8z"/>
		<path class="st0" d="M167.1,87.4c0.1,5.3-4,9.8-9.4,10c-4.6,0.2-8.4-3.4-8.6-8c0-0.1,0-0.3,0-0.4c0.1-6,3.4-9.7,10.2-10
			C163.6,78.6,167.1,82.6,167.1,87.4z M153.9,86c1.4,2.4,2.4,3.8,4.6,2.9s2.8-2.6,2.6-4.8c0-0.7-0.6-1.3-1.3-1.3l0,0
			c-0.5,0-1,0.3-1.1,0.8c-0.2,0.6,0.2,1.1,0.7,1.3h0.1c1.8,0.5,0.4,1.3,0,1.7C157.8,88.2,156.2,86.6,153.9,86z"/>
		<path class="st0" d="M337.6,46.3c0.2-3.6,0.2-7.2,1-10.7c0.8-3.1,3.9-5,6.9-4.2c0.9,0.2,1.8,0.7,2.5,1.3c0.6,0.5,0.5,0.9,0.1,1.5
			c-3.2,6.2-3.8,12.9-4.7,19.6c-0.2,1.8-0.3,3.6-0.5,5.4c-0.1,0.9,0.4,2.3-1,2.5s-2.6-0.7-3-2c-1-2.9-1-5.9-1.3-8.9
			C337.5,49.4,337.6,47.8,337.6,46.3z"/>
		<path class="st0" d="M341.5,62.9c1.7,0,3.1,1.4,3.1,3.1c0,0.1,0,0.2,0,0.3c0,1.9-1.5,3.6-3.4,3.6s-3.6-1.5-3.6-3.4
			c0-0.1,0-0.2,0-0.3C337.6,64,339,62.9,341.5,62.9z"/>
	</g>
</g>
</svg>
